<mxfile host="app.diagrams.net" modified="2024-03-25T12:08:14.726Z" agent="Mozilla/5.0 (Windows NT 10.0; Win64; x64) AppleWebKit/537.36 (KHTML, like Gecko) Chrome/120.0.0.0 YaBrowser/24.1.0.0 Safari/537.36" etag="7PZ-RSOeeAuPZtL-ji7i" version="24.1.0" type="google">
  <diagram id="C5RBs43oDa-KdzZeNtuy" name="Page-1">
    <mxGraphModel grid="1" page="1" gridSize="10" guides="1" tooltips="1" connect="1" arrows="1" fold="1" pageScale="1" pageWidth="827" pageHeight="1169" math="0" shadow="0">
      <root>
        <mxCell id="WIyWlLk6GJQsqaUBKTNV-0" />
        <mxCell id="WIyWlLk6GJQsqaUBKTNV-1" parent="WIyWlLk6GJQsqaUBKTNV-0" />
        <mxCell id="WBndmiWZj90PtAzrbYR8-0" value="&lt;span style=&quot;font-size: 16px;&quot;&gt;Начало&lt;/span&gt;" style="ellipse;whiteSpace=wrap;html=1;" vertex="1" parent="WIyWlLk6GJQsqaUBKTNV-1">
          <mxGeometry x="280" y="120" width="160" height="40" as="geometry" />
        </mxCell>
        <mxCell id="WBndmiWZj90PtAzrbYR8-1" value="&lt;font style=&quot;font-size: 16px;&quot;&gt;Главное меню&lt;/font&gt;" style="rhombus;whiteSpace=wrap;html=1;" vertex="1" parent="WIyWlLk6GJQsqaUBKTNV-1">
          <mxGeometry x="280" y="200" width="160" height="80" as="geometry" />
        </mxCell>
        <mxCell id="WBndmiWZj90PtAzrbYR8-2" value="" style="endArrow=none;html=1;rounded=0;entryX=0.5;entryY=1;entryDx=0;entryDy=0;exitX=0.5;exitY=0;exitDx=0;exitDy=0;" edge="1" parent="WIyWlLk6GJQsqaUBKTNV-1" source="WBndmiWZj90PtAzrbYR8-1" target="WBndmiWZj90PtAzrbYR8-0">
          <mxGeometry width="50" height="50" relative="1" as="geometry">
            <mxPoint x="390" y="330" as="sourcePoint" />
            <mxPoint x="440" y="280" as="targetPoint" />
          </mxGeometry>
        </mxCell>
        <mxCell id="WBndmiWZj90PtAzrbYR8-4" value="&lt;font style=&quot;font-size: 16px;&quot;&gt;Выход&lt;/font&gt;" style="rounded=0;whiteSpace=wrap;html=1;" vertex="1" parent="WIyWlLk6GJQsqaUBKTNV-1">
          <mxGeometry x="400" y="680" width="160" height="80" as="geometry" />
        </mxCell>
        <mxCell id="WBndmiWZj90PtAzrbYR8-9" value="&lt;font style=&quot;font-size: 16px;&quot;&gt;Ввод имени&lt;/font&gt;" style="rounded=0;whiteSpace=wrap;html=1;" vertex="1" parent="WIyWlLk6GJQsqaUBKTNV-1">
          <mxGeometry x="400" y="320" width="160" height="80" as="geometry" />
        </mxCell>
        <mxCell id="WBndmiWZj90PtAzrbYR8-10" value="&lt;span style=&quot;font-size: 16px;&quot;&gt;Уровни&lt;/span&gt;" style="rounded=0;whiteSpace=wrap;html=1;" vertex="1" parent="WIyWlLk6GJQsqaUBKTNV-1">
          <mxGeometry x="400" y="440" width="160" height="80" as="geometry" />
        </mxCell>
        <mxCell id="WBndmiWZj90PtAzrbYR8-11" value="&lt;span style=&quot;font-size: 16px;&quot;&gt;Настройки&lt;/span&gt;" style="rounded=0;whiteSpace=wrap;html=1;" vertex="1" parent="WIyWlLk6GJQsqaUBKTNV-1">
          <mxGeometry x="400" y="560" width="160" height="80" as="geometry" />
        </mxCell>
        <mxCell id="WBndmiWZj90PtAzrbYR8-12" value="" style="endArrow=none;html=1;rounded=0;entryX=0.5;entryY=1;entryDx=0;entryDy=0;" edge="1" parent="WIyWlLk6GJQsqaUBKTNV-1" target="WBndmiWZj90PtAzrbYR8-1">
          <mxGeometry width="50" height="50" relative="1" as="geometry">
            <mxPoint x="360" y="720" as="sourcePoint" />
            <mxPoint x="359.5" y="240" as="targetPoint" />
          </mxGeometry>
        </mxCell>
        <mxCell id="WBndmiWZj90PtAzrbYR8-15" value="" style="endArrow=none;html=1;rounded=0;exitX=1;exitY=0.5;exitDx=0;exitDy=0;" edge="1" parent="WIyWlLk6GJQsqaUBKTNV-1" source="WBndmiWZj90PtAzrbYR8-11">
          <mxGeometry width="50" height="50" relative="1" as="geometry">
            <mxPoint x="390" y="570" as="sourcePoint" />
            <mxPoint x="560" y="580" as="targetPoint" />
          </mxGeometry>
        </mxCell>
        <mxCell id="WBndmiWZj90PtAzrbYR8-21" value="" style="endArrow=none;html=1;rounded=0;" edge="1" parent="WIyWlLk6GJQsqaUBKTNV-1">
          <mxGeometry width="50" height="50" relative="1" as="geometry">
            <mxPoint x="360" y="359.5" as="sourcePoint" />
            <mxPoint x="400" y="359.5" as="targetPoint" />
          </mxGeometry>
        </mxCell>
        <mxCell id="WBndmiWZj90PtAzrbYR8-34" value="" style="endArrow=none;html=1;rounded=0;entryX=-0.001;entryY=0.559;entryDx=0;entryDy=0;entryPerimeter=0;" edge="1" parent="WIyWlLk6GJQsqaUBKTNV-1" target="WBndmiWZj90PtAzrbYR8-11">
          <mxGeometry width="50" height="50" relative="1" as="geometry">
            <mxPoint x="360" y="605" as="sourcePoint" />
            <mxPoint x="400" y="597.5" as="targetPoint" />
          </mxGeometry>
        </mxCell>
        <mxCell id="WBndmiWZj90PtAzrbYR8-35" value="" style="endArrow=none;html=1;rounded=0;entryX=0;entryY=0.5;entryDx=0;entryDy=0;" edge="1" parent="WIyWlLk6GJQsqaUBKTNV-1" target="WBndmiWZj90PtAzrbYR8-10">
          <mxGeometry width="50" height="50" relative="1" as="geometry">
            <mxPoint x="360" y="480" as="sourcePoint" />
            <mxPoint x="380" y="540" as="targetPoint" />
          </mxGeometry>
        </mxCell>
        <mxCell id="JKGmajAQlgkrUAeQzhi5-7" value="" style="endArrow=none;html=1;rounded=0;entryX=0;entryY=0.5;entryDx=0;entryDy=0;" edge="1" parent="WIyWlLk6GJQsqaUBKTNV-1" target="WBndmiWZj90PtAzrbYR8-4">
          <mxGeometry width="50" height="50" relative="1" as="geometry">
            <mxPoint x="360" y="720" as="sourcePoint" />
            <mxPoint x="330" y="630" as="targetPoint" />
          </mxGeometry>
        </mxCell>
        <mxCell id="JKGmajAQlgkrUAeQzhi5-9" value="" style="endArrow=none;html=1;rounded=0;" edge="1" parent="WIyWlLk6GJQsqaUBKTNV-1">
          <mxGeometry width="50" height="50" relative="1" as="geometry">
            <mxPoint x="560" y="360" as="sourcePoint" />
            <mxPoint x="600" y="360" as="targetPoint" />
          </mxGeometry>
        </mxCell>
        <mxCell id="JKGmajAQlgkrUAeQzhi5-10" value="" style="endArrow=none;html=1;rounded=0;" edge="1" parent="WIyWlLk6GJQsqaUBKTNV-1">
          <mxGeometry width="50" height="50" relative="1" as="geometry">
            <mxPoint x="560" y="479.47" as="sourcePoint" />
            <mxPoint x="600" y="479.47" as="targetPoint" />
          </mxGeometry>
        </mxCell>
        <mxCell id="JKGmajAQlgkrUAeQzhi5-11" value="" style="endArrow=none;html=1;rounded=0;" edge="1" parent="WIyWlLk6GJQsqaUBKTNV-1">
          <mxGeometry width="50" height="50" relative="1" as="geometry">
            <mxPoint x="560" y="599.47" as="sourcePoint" />
            <mxPoint x="600" y="599.47" as="targetPoint" />
          </mxGeometry>
        </mxCell>
        <mxCell id="JKGmajAQlgkrUAeQzhi5-12" value="" style="endArrow=none;html=1;rounded=0;" edge="1" parent="WIyWlLk6GJQsqaUBKTNV-1">
          <mxGeometry width="50" height="50" relative="1" as="geometry">
            <mxPoint x="560" y="719.47" as="sourcePoint" />
            <mxPoint x="600" y="719.47" as="targetPoint" />
          </mxGeometry>
        </mxCell>
        <mxCell id="JKGmajAQlgkrUAeQzhi5-13" value="" style="endArrow=none;html=1;rounded=0;" edge="1" parent="WIyWlLk6GJQsqaUBKTNV-1">
          <mxGeometry width="50" height="50" relative="1" as="geometry">
            <mxPoint x="600" y="720" as="sourcePoint" />
            <mxPoint x="600" y="360" as="targetPoint" />
          </mxGeometry>
        </mxCell>
        <mxCell id="JKGmajAQlgkrUAeQzhi5-14" value="&lt;font style=&quot;font-size: 16px;&quot;&gt;Выбор уровня&lt;/font&gt;" style="rhombus;whiteSpace=wrap;html=1;" vertex="1" parent="WIyWlLk6GJQsqaUBKTNV-1">
          <mxGeometry x="640" y="500" width="160" height="80" as="geometry" />
        </mxCell>
        <mxCell id="JKGmajAQlgkrUAeQzhi5-15" value="" style="endArrow=none;html=1;rounded=0;" edge="1" parent="WIyWlLk6GJQsqaUBKTNV-1" target="JKGmajAQlgkrUAeQzhi5-14">
          <mxGeometry width="50" height="50" relative="1" as="geometry">
            <mxPoint x="600" y="540" as="sourcePoint" />
            <mxPoint x="650" y="490" as="targetPoint" />
          </mxGeometry>
        </mxCell>
        <mxCell id="JKGmajAQlgkrUAeQzhi5-17" value="" style="endArrow=none;html=1;rounded=0;entryX=0.5;entryY=1;entryDx=0;entryDy=0;" edge="1" parent="WIyWlLk6GJQsqaUBKTNV-1">
          <mxGeometry width="50" height="50" relative="1" as="geometry">
            <mxPoint x="719" y="880" as="sourcePoint" />
            <mxPoint x="719.47" y="580" as="targetPoint" />
          </mxGeometry>
        </mxCell>
        <mxCell id="JKGmajAQlgkrUAeQzhi5-18" value="&lt;font style=&quot;font-size: 16px;&quot;&gt;Легкий&lt;/font&gt;" style="rounded=0;whiteSpace=wrap;html=1;" vertex="1" parent="WIyWlLk6GJQsqaUBKTNV-1">
          <mxGeometry x="760" y="600" width="160" height="80" as="geometry" />
        </mxCell>
        <mxCell id="JKGmajAQlgkrUAeQzhi5-19" value="&lt;font style=&quot;font-size: 16px;&quot;&gt;Средний&lt;/font&gt;" style="rounded=0;whiteSpace=wrap;html=1;" vertex="1" parent="WIyWlLk6GJQsqaUBKTNV-1">
          <mxGeometry x="760" y="720" width="160" height="80" as="geometry" />
        </mxCell>
        <mxCell id="JKGmajAQlgkrUAeQzhi5-20" value="&lt;font style=&quot;font-size: 16px;&quot;&gt;Сложный&lt;/font&gt;" style="rounded=0;whiteSpace=wrap;html=1;" vertex="1" parent="WIyWlLk6GJQsqaUBKTNV-1">
          <mxGeometry x="760" y="840" width="160" height="80" as="geometry" />
        </mxCell>
        <mxCell id="JKGmajAQlgkrUAeQzhi5-21" value="1" style="text;html=1;align=center;verticalAlign=middle;whiteSpace=wrap;rounded=0;" vertex="1" parent="WIyWlLk6GJQsqaUBKTNV-1">
          <mxGeometry x="354" y="330" width="60" height="30" as="geometry" />
        </mxCell>
        <mxCell id="JKGmajAQlgkrUAeQzhi5-22" value="2" style="text;html=1;align=center;verticalAlign=middle;whiteSpace=wrap;rounded=0;" vertex="1" parent="WIyWlLk6GJQsqaUBKTNV-1">
          <mxGeometry x="354" y="450" width="60" height="30" as="geometry" />
        </mxCell>
        <mxCell id="JKGmajAQlgkrUAeQzhi5-23" value="3" style="text;html=1;align=center;verticalAlign=middle;whiteSpace=wrap;rounded=0;" vertex="1" parent="WIyWlLk6GJQsqaUBKTNV-1">
          <mxGeometry x="354" y="580" width="60" height="30" as="geometry" />
        </mxCell>
        <mxCell id="JKGmajAQlgkrUAeQzhi5-24" value="4" style="text;html=1;align=center;verticalAlign=middle;whiteSpace=wrap;rounded=0;" vertex="1" parent="WIyWlLk6GJQsqaUBKTNV-1">
          <mxGeometry x="354" y="690" width="60" height="30" as="geometry" />
        </mxCell>
        <mxCell id="JKGmajAQlgkrUAeQzhi5-25" value="&lt;span style=&quot;font-size: 16px;&quot;&gt;Конец&lt;/span&gt;" style="ellipse;whiteSpace=wrap;html=1;" vertex="1" parent="WIyWlLk6GJQsqaUBKTNV-1">
          <mxGeometry x="304" y="1040" width="160" height="40" as="geometry" />
        </mxCell>
        <mxCell id="JKGmajAQlgkrUAeQzhi5-28" value="" style="edgeStyle=orthogonalEdgeStyle;rounded=0;orthogonalLoop=1;jettySize=auto;html=1;endArrow=none;endFill=0;" edge="1" parent="WIyWlLk6GJQsqaUBKTNV-1" source="JKGmajAQlgkrUAeQzhi5-26" target="JKGmajAQlgkrUAeQzhi5-27">
          <mxGeometry relative="1" as="geometry" />
        </mxCell>
        <mxCell id="JKGmajAQlgkrUAeQzhi5-26" value="&lt;font style=&quot;font-size: 16px;&quot;&gt;Игра&lt;/font&gt;" style="rounded=0;whiteSpace=wrap;html=1;" vertex="1" parent="WIyWlLk6GJQsqaUBKTNV-1">
          <mxGeometry x="1000" y="720" width="160" height="80" as="geometry" />
        </mxCell>
        <mxCell id="JKGmajAQlgkrUAeQzhi5-27" value="&lt;font style=&quot;font-size: 16px;&quot;&gt;Выход&lt;/font&gt;" style="rounded=0;whiteSpace=wrap;html=1;" vertex="1" parent="WIyWlLk6GJQsqaUBKTNV-1">
          <mxGeometry x="1000" y="840" width="160" height="80" as="geometry" />
        </mxCell>
        <mxCell id="JKGmajAQlgkrUAeQzhi5-29" value="" style="endArrow=none;html=1;rounded=0;entryX=0;entryY=0.5;entryDx=0;entryDy=0;" edge="1" parent="WIyWlLk6GJQsqaUBKTNV-1" target="JKGmajAQlgkrUAeQzhi5-18">
          <mxGeometry width="50" height="50" relative="1" as="geometry">
            <mxPoint x="720" y="640" as="sourcePoint" />
            <mxPoint x="590" y="730" as="targetPoint" />
            <Array as="points" />
          </mxGeometry>
        </mxCell>
        <mxCell id="JKGmajAQlgkrUAeQzhi5-30" value="" style="endArrow=none;html=1;rounded=0;entryX=0;entryY=0.5;entryDx=0;entryDy=0;" edge="1" parent="WIyWlLk6GJQsqaUBKTNV-1" target="JKGmajAQlgkrUAeQzhi5-19">
          <mxGeometry width="50" height="50" relative="1" as="geometry">
            <mxPoint x="720" y="760" as="sourcePoint" />
            <mxPoint x="770" y="650" as="targetPoint" />
            <Array as="points" />
          </mxGeometry>
        </mxCell>
        <mxCell id="JKGmajAQlgkrUAeQzhi5-31" value="" style="endArrow=none;html=1;rounded=0;entryX=0;entryY=0.5;entryDx=0;entryDy=0;" edge="1" parent="WIyWlLk6GJQsqaUBKTNV-1" target="JKGmajAQlgkrUAeQzhi5-20">
          <mxGeometry width="50" height="50" relative="1" as="geometry">
            <mxPoint x="720" y="880" as="sourcePoint" />
            <mxPoint x="780" y="660" as="targetPoint" />
            <Array as="points" />
          </mxGeometry>
        </mxCell>
        <mxCell id="JKGmajAQlgkrUAeQzhi5-32" value="" style="endArrow=none;html=1;rounded=0;entryX=1;entryY=0.5;entryDx=0;entryDy=0;" edge="1" parent="WIyWlLk6GJQsqaUBKTNV-1" target="JKGmajAQlgkrUAeQzhi5-18">
          <mxGeometry width="50" height="50" relative="1" as="geometry">
            <mxPoint x="960" y="640" as="sourcePoint" />
            <mxPoint x="790" y="670" as="targetPoint" />
            <Array as="points" />
          </mxGeometry>
        </mxCell>
        <mxCell id="JKGmajAQlgkrUAeQzhi5-33" value="" style="endArrow=none;html=1;rounded=0;entryX=1;entryY=0.5;entryDx=0;entryDy=0;" edge="1" parent="WIyWlLk6GJQsqaUBKTNV-1">
          <mxGeometry width="50" height="50" relative="1" as="geometry">
            <mxPoint x="960" y="760" as="sourcePoint" />
            <mxPoint x="920" y="760" as="targetPoint" />
            <Array as="points" />
          </mxGeometry>
        </mxCell>
        <mxCell id="JKGmajAQlgkrUAeQzhi5-34" value="" style="endArrow=none;html=1;rounded=0;entryX=1;entryY=0.5;entryDx=0;entryDy=0;" edge="1" parent="WIyWlLk6GJQsqaUBKTNV-1">
          <mxGeometry width="50" height="50" relative="1" as="geometry">
            <mxPoint x="960" y="879.5699999999999" as="sourcePoint" />
            <mxPoint x="920" y="879.5699999999999" as="targetPoint" />
            <Array as="points" />
          </mxGeometry>
        </mxCell>
        <mxCell id="JKGmajAQlgkrUAeQzhi5-35" value="" style="endArrow=none;html=1;rounded=0;entryX=1;entryY=0.5;entryDx=0;entryDy=0;" edge="1" parent="WIyWlLk6GJQsqaUBKTNV-1">
          <mxGeometry width="50" height="50" relative="1" as="geometry">
            <mxPoint x="1000" y="760" as="sourcePoint" />
            <mxPoint x="960" y="760" as="targetPoint" />
            <Array as="points" />
          </mxGeometry>
        </mxCell>
        <mxCell id="JKGmajAQlgkrUAeQzhi5-36" value="" style="endArrow=none;html=1;rounded=0;" edge="1" parent="WIyWlLk6GJQsqaUBKTNV-1">
          <mxGeometry width="50" height="50" relative="1" as="geometry">
            <mxPoint x="960" y="880" as="sourcePoint" />
            <mxPoint x="960" y="640" as="targetPoint" />
          </mxGeometry>
        </mxCell>
        <mxCell id="JKGmajAQlgkrUAeQzhi5-38" value="" style="endArrow=none;html=1;rounded=0;entryX=0.479;entryY=0;entryDx=0;entryDy=0;entryPerimeter=0;" edge="1" parent="WIyWlLk6GJQsqaUBKTNV-1" target="JKGmajAQlgkrUAeQzhi5-25">
          <mxGeometry width="50" height="50" relative="1" as="geometry">
            <mxPoint x="1080" y="1000" as="sourcePoint" />
            <mxPoint x="380" y="1000" as="targetPoint" />
            <Array as="points">
              <mxPoint x="380" y="1000" />
            </Array>
          </mxGeometry>
        </mxCell>
        <mxCell id="JKGmajAQlgkrUAeQzhi5-39" value="" style="endArrow=none;html=1;rounded=0;entryX=0.5;entryY=1;entryDx=0;entryDy=0;" edge="1" parent="WIyWlLk6GJQsqaUBKTNV-1" target="JKGmajAQlgkrUAeQzhi5-27">
          <mxGeometry width="50" height="50" relative="1" as="geometry">
            <mxPoint x="1080" y="1000" as="sourcePoint" />
            <mxPoint x="860" y="650" as="targetPoint" />
          </mxGeometry>
        </mxCell>
      </root>
    </mxGraphModel>
  </diagram>
</mxfile>
